<?xml version="1.0" encoding="UTF-8" standalone="no"?>
<!-- Generator: Adobe Illustrator 16.0.3, SVG Export Plug-In . SVG Version: 6.00 Build 0)  -->

<svg
   xmlns:dc="http://purl.org/dc/elements/1.1/"
   xmlns:cc="http://creativecommons.org/ns#"
   xmlns:rdf="http://www.w3.org/1999/02/22-rdf-syntax-ns#"
   xmlns:svg="http://www.w3.org/2000/svg"
   xmlns="http://www.w3.org/2000/svg"
   xmlns:sodipodi="http://sodipodi.sourceforge.net/DTD/sodipodi-0.dtd"
   xmlns:inkscape="http://www.inkscape.org/namespaces/inkscape"
   version="1.1"
   id="Layer_1"
   x="0px"
   y="0px"
   width="1190.551px"
   height="841.89px"
   viewBox="0 0 1190.551 841.89"
   enable-background="new 0 0 1190.551 841.89"
   xml:space="preserve"
   inkscape:version="0.48.5 r10040"
   sodipodi:docname="ESCIENCE_logo_C_nl_small_cyan [Converted].svg"
   inkscape:export-filename="/home/paulm/mnt/projects/boids-git/logos/ESCIENCE_logo_C_nl_small_cyan [Converted].png"
   inkscape:export-xdpi="598.86328"
   inkscape:export-ydpi="598.86328"><metadata
     id="metadata57"><rdf:RDF><cc:Work
         rdf:about=""><dc:format>image/svg+xml</dc:format><dc:type
           rdf:resource="http://purl.org/dc/dcmitype/StillImage" /><dc:title></dc:title></cc:Work></rdf:RDF></metadata><defs
     id="defs55" /><sodipodi:namedview
     pagecolor="#ffffff"
     bordercolor="#666666"
     borderopacity="1"
     objecttolerance="10"
     gridtolerance="10"
     guidetolerance="10"
     inkscape:pageopacity="1"
     inkscape:pageshadow="2"
     inkscape:window-width="1920"
     inkscape:window-height="991"
     id="namedview53"
     showgrid="false"
     inkscape:zoom="0.50396832"
     inkscape:cx="399.41283"
     inkscape:cy="476.76939"
     inkscape:window-x="0"
     inkscape:window-y="33"
     inkscape:window-maximized="1"
     inkscape:current-layer="Layer_1" /><g
     id="g3"><path
       fill="#00AEEF"
       d="M343.563,59.291c-0.034,0.512-0.132,1.011-0.298,1.498c-0.165,0.487-0.396,0.921-0.693,1.301   c-0.446,0.562-1.045,1.04-1.795,1.437c-0.752,0.396-1.623,0.594-2.613,0.594c-0.991,0-1.875-0.202-2.65-0.607   c-0.776-0.404-1.387-0.879-1.833-1.424c-0.479-0.611-0.833-1.313-1.064-2.105c-0.231-0.793-0.347-1.66-0.347-2.601   c0-0.941,0.116-1.809,0.347-2.601c0.231-0.793,0.585-1.495,1.064-2.105c0.446-0.544,1.057-1.019,1.833-1.424   c0.776-0.404,1.659-0.607,2.65-0.607c0.991,0,1.861,0.198,2.613,0.595c0.75,0.396,1.349,0.875,1.795,1.437   c0.297,0.38,0.528,0.813,0.693,1.3c0.166,0.487,0.264,0.987,0.298,1.498h-3.047c-0.017-0.231-0.058-0.446-0.123-0.644   c-0.067-0.198-0.149-0.379-0.248-0.544c-0.182-0.281-0.438-0.512-0.768-0.693s-0.734-0.273-1.213-0.273   c-0.43,0-0.797,0.075-1.102,0.223c-0.306,0.148-0.566,0.339-0.78,0.57c-0.38,0.413-0.619,0.908-0.718,1.485   c-0.1,0.579-0.148,1.173-0.148,1.784c0,0.611,0.049,1.201,0.148,1.771c0.099,0.569,0.338,1.061,0.718,1.473   c0.214,0.231,0.474,0.425,0.78,0.582c0.305,0.157,0.672,0.235,1.102,0.235c0.479,0,0.883-0.09,1.213-0.273   c0.33-0.181,0.586-0.412,0.768-0.693c0.099-0.166,0.181-0.347,0.248-0.545c0.065-0.198,0.106-0.413,0.123-0.644H343.563z"
       id="path5" /><path
       fill="#00AEEF"
       d="M356.466,57.507c-0.017,0.116-0.025,0.223-0.025,0.322v0.545h-8.619c0,0.495,0.079,0.966,0.236,1.412   c0.156,0.446,0.392,0.817,0.706,1.115c0.231,0.215,0.499,0.401,0.805,0.557c0.305,0.157,0.672,0.235,1.102,0.235   c0.446,0,0.813-0.045,1.102-0.136c0.289-0.091,0.548-0.252,0.78-0.483c0.297-0.297,0.503-0.66,0.619-1.089h2.972   c-0.034,0.38-0.161,0.796-0.384,1.25c-0.223,0.454-0.458,0.83-0.706,1.126c-0.545,0.644-1.197,1.107-1.957,1.387   c-0.76,0.281-1.553,0.421-2.377,0.421c-0.892,0-1.664-0.145-2.316-0.434c-0.653-0.289-1.234-0.673-1.746-1.151   c-0.644-0.627-1.135-1.378-1.474-2.254c-0.338-0.875-0.508-1.841-0.508-2.898c0-1.04,0.153-2.002,0.459-2.885   c0.305-0.883,0.771-1.639,1.399-2.266c0.479-0.496,1.061-0.892,1.747-1.189c0.685-0.297,1.473-0.446,2.365-0.446   c0.958,0,1.85,0.194,2.675,0.582c0.825,0.389,1.502,0.987,2.031,1.796c0.479,0.71,0.784,1.433,0.917,2.167   C356.4,55.926,356.466,56.698,356.466,57.507z M353.37,56.12c-0.016-0.941-0.281-1.692-0.792-2.254   c-0.215-0.231-0.483-0.413-0.805-0.545c-0.322-0.131-0.706-0.198-1.152-0.198c-0.479,0-0.9,0.091-1.263,0.273   s-0.66,0.421-0.892,0.718c-0.231,0.281-0.396,0.578-0.495,0.892s-0.157,0.685-0.173,1.114H353.37z"
       id="path7" /><path
       fill="#00AEEF"
       d="M366.497,63.848v-7.901c0-0.759-0.149-1.354-0.446-1.783c-0.297-0.429-0.859-0.644-1.684-0.644   c-0.545,0-1,0.153-1.362,0.458c-0.363,0.306-0.653,0.697-0.867,1.176c-0.215,0.479-0.339,1.036-0.372,1.672   c-0.033,0.636-0.049,1.226-0.049,1.771v5.251h-3.096V50.968h2.601l0.223,1.659c0.379-0.677,0.92-1.176,1.623-1.498   c0.702-0.322,1.424-0.483,2.167-0.483c0.693,0,1.309,0.116,1.845,0.347c0.536,0.231,0.991,0.549,1.362,0.953   c0.372,0.405,0.656,0.892,0.854,1.461c0.198,0.57,0.297,1.185,0.297,1.845v8.595H366.497z"
       id="path9" /><path
       fill="#00AEEF"
       d="M379.797,63.674c-0.892,0.231-1.775,0.347-2.65,0.347c-1.304,0-2.279-0.351-2.922-1.052   c-0.644-0.702-0.965-1.672-0.965-2.91v-6.539h-2.354v-2.551h2.354v-3.27l3.095-0.768v4.037h3.245v2.551h-3.245v6.266   c0,0.495,0.116,0.854,0.347,1.078c0.231,0.223,0.594,0.334,1.09,0.334c0.33,0,0.639-0.008,0.929-0.025   c0.289-0.016,0.648-0.049,1.077-0.099V63.674z"
       id="path11" /><path
       fill="#00AEEF"
       d="M392.33,57.507c-0.016,0.116-0.024,0.223-0.024,0.322v0.545h-8.62c0,0.495,0.078,0.966,0.235,1.412   c0.157,0.446,0.392,0.817,0.705,1.115c0.231,0.215,0.5,0.401,0.805,0.557c0.306,0.157,0.674,0.235,1.103,0.235   c0.446,0,0.813-0.045,1.103-0.136c0.289-0.091,0.549-0.252,0.78-0.483c0.296-0.297,0.503-0.66,0.619-1.089h2.972   c-0.033,0.38-0.161,0.796-0.384,1.25c-0.222,0.454-0.458,0.83-0.706,1.126c-0.544,0.644-1.197,1.107-1.957,1.387   c-0.76,0.281-1.552,0.421-2.377,0.421c-0.892,0-1.665-0.145-2.316-0.434c-0.653-0.289-1.234-0.673-1.747-1.151   c-0.644-0.627-1.135-1.378-1.474-2.254c-0.338-0.875-0.508-1.841-0.508-2.898c0-1.04,0.153-2.002,0.458-2.885   s0.771-1.639,1.4-2.266c0.478-0.496,1.061-0.892,1.746-1.189c0.685-0.297,1.474-0.446,2.366-0.446c0.957,0,1.849,0.194,2.675,0.582   c0.826,0.389,1.502,0.987,2.031,1.796c0.479,0.71,0.784,1.433,0.916,2.167C392.263,55.926,392.33,56.698,392.33,57.507z    M389.234,56.12c-0.018-0.941-0.282-1.692-0.793-2.254c-0.215-0.231-0.483-0.413-0.805-0.545c-0.322-0.131-0.706-0.198-1.151-0.198   c-0.479,0-0.901,0.091-1.264,0.273s-0.661,0.421-0.891,0.718c-0.231,0.281-0.396,0.578-0.496,0.892s-0.157,0.685-0.174,1.114   H389.234z"
       id="path13" /><path
       fill="#00AEEF"
       d="M401.989,53.841c-0.38-0.083-0.735-0.124-1.064-0.124c-1.09,0-1.917,0.346-2.478,1.04   c-0.561,0.693-0.841,1.561-0.841,2.6v6.49h-3.121V50.968h2.626l0.272,1.932c0.297-0.743,0.788-1.279,1.473-1.61   c0.686-0.33,1.408-0.495,2.168-0.495c0.313,0,0.635,0.024,0.965,0.074V53.841z"
       id="path15" /></g><g
     id="g17"><path
       fill="#00AEEF"
       d="M242.388,53.906c-0.215-0.231-0.483-0.413-0.805-0.546c-0.19-0.078-0.407-0.125-0.638-0.157v2.957h2.237   C243.165,55.219,242.9,54.468,242.388,53.906z"
       id="path19" /><path
       fill="#00AEEF"
       d="M324.38,54.153c-0.231,0.282-0.396,0.579-0.495,0.892c-0.099,0.314-0.157,0.686-0.173,1.115h2.273v-2.95   c-0.257,0.045-0.497,0.117-0.713,0.225C324.909,53.617,324.611,53.856,324.38,54.153z"
       id="path21" /><path
       fill="#00AEEF"
       d="M288.315,53.36c-0.321-0.131-0.705-0.198-1.152-0.198c-0.479,0-0.9,0.091-1.264,0.273   c-0.363,0.181-0.661,0.42-0.892,0.718c-0.231,0.282-0.396,0.579-0.496,0.892c-0.098,0.314-0.156,0.686-0.173,1.115h5.575   c-0.017-0.941-0.281-1.692-0.793-2.254C288.906,53.675,288.638,53.493,288.315,53.36z"
       id="path23" /><path
       fill="#00AEEF"
       d="M322.572,62.628c-0.645-0.627-1.136-1.378-1.475-2.255c-0.337-0.875-0.508-1.842-0.508-2.899   c0-1.041,0.153-2.002,0.459-2.886c0.305-0.884,0.772-1.64,1.399-2.268c0.479-0.495,1.061-0.892,1.748-1.189   c0.533-0.232,1.131-0.371,1.79-0.422V42.52h-85.04v8.19c0.773,0.056,1.503,0.237,2.187,0.557c0.827,0.389,1.503,0.988,2.032,1.797   c0.479,0.71,0.784,1.433,0.917,2.168c0.132,0.735,0.198,1.508,0.198,2.316c-0.016,0.116-0.024,0.224-0.024,0.323v0.544h-5.309   v3.295c0.239-0.021,0.459-0.054,0.638-0.11c0.289-0.09,0.549-0.251,0.78-0.483c0.297-0.297,0.504-0.661,0.62-1.089h2.973   c-0.033,0.379-0.161,0.796-0.384,1.25c-0.222,0.455-0.458,0.831-0.706,1.127c-0.545,0.645-1.199,1.107-1.958,1.388   c-0.631,0.233-1.286,0.364-1.963,0.403v5.254h85.04v-5.264c-0.623-0.055-1.177-0.19-1.667-0.406   C323.666,63.491,323.083,63.107,322.572,62.628z M260.936,60.794c-0.273,0.595-0.623,1.107-1.054,1.537   c-0.676,0.677-1.499,1.16-2.465,1.449c-0.967,0.289-1.995,0.435-3.085,0.435c-0.941,0-1.87-0.137-2.788-0.41   c-0.917-0.272-1.738-0.739-2.465-1.4c-0.528-0.479-0.966-1.069-1.313-1.772c-0.347-0.702-0.521-1.474-0.521-2.316h3.271   c0,0.43,0.087,0.831,0.26,1.202c0.174,0.372,0.392,0.69,0.658,0.953c0.379,0.38,0.837,0.632,1.374,0.756   c0.537,0.124,1.062,0.186,1.574,0.186c0.61,0,1.188-0.071,1.735-0.211c0.544-0.14,0.982-0.384,1.313-0.731   c0.198-0.214,0.364-0.441,0.496-0.681c0.132-0.239,0.197-0.574,0.197-1.003c0-0.645-0.21-1.128-0.632-1.45   c-0.421-0.322-0.904-0.533-1.449-0.631c-0.595-0.116-1.248-0.199-1.958-0.249c-0.71-0.049-1.354-0.124-1.933-0.222   c-0.611-0.1-1.185-0.273-1.721-0.521c-0.538-0.248-1.008-0.574-1.414-0.979c-0.404-0.404-0.727-0.892-0.966-1.462   s-0.359-1.218-0.359-1.945c0-0.694,0.14-1.33,0.421-1.908c0.28-0.579,0.652-1.099,1.115-1.561c0.578-0.579,1.321-1.032,2.23-1.364   c0.908-0.33,1.883-0.495,2.924-0.495c0.941,0,1.845,0.145,2.713,0.434s1.598,0.714,2.193,1.276   c0.528,0.496,0.954,1.057,1.276,1.685c0.321,0.627,0.49,1.313,0.507,2.056h-3.271c-0.016-0.313-0.095-0.624-0.235-0.929   c-0.14-0.306-0.318-0.574-0.532-0.806c-0.282-0.297-0.678-0.528-1.19-0.693c-0.512-0.165-1.008-0.249-1.486-0.249   c-0.496,0-1.004,0.066-1.523,0.199c-0.521,0.132-0.963,0.389-1.327,0.768c-0.183,0.198-0.327,0.413-0.433,0.644   c-0.107,0.232-0.162,0.512-0.162,0.842c0,0.579,0.166,1.021,0.496,1.326c0.331,0.306,0.76,0.5,1.289,0.582   c0.562,0.083,1.193,0.157,1.896,0.223c0.702,0.067,1.342,0.141,1.92,0.224c0.661,0.099,1.284,0.276,1.87,0.532   c0.586,0.256,1.099,0.595,1.537,1.016c0.438,0.421,0.784,0.929,1.041,1.524s0.384,1.264,0.384,2.007   C261.345,59.49,261.208,60.2,260.936,60.794z M265.754,59.196c0.099,0.57,0.339,1.062,0.719,1.475   c0.214,0.231,0.476,0.425,0.78,0.583c0.305,0.157,0.673,0.235,1.103,0.235c0.479,0,0.884-0.09,1.214-0.272   c0.331-0.181,0.587-0.414,0.769-0.693c0.098-0.166,0.181-0.347,0.248-0.546c0.065-0.197,0.106-0.413,0.123-0.644h3.049   c-0.034,0.513-0.133,1.013-0.298,1.499c-0.165,0.488-0.397,0.921-0.693,1.301c-0.447,0.562-1.046,1.041-1.797,1.438   c-0.752,0.396-1.623,0.595-2.614,0.595s-1.875-0.203-2.651-0.607c-0.776-0.404-1.388-0.879-1.834-1.425   c-0.48-0.611-0.834-1.313-1.065-2.105c-0.231-0.793-0.347-1.661-0.347-2.603s0.115-1.809,0.347-2.601   c0.231-0.793,0.585-1.495,1.065-2.107c0.446-0.545,1.058-1.02,1.834-1.424c0.776-0.405,1.66-0.607,2.651-0.607   s1.862,0.198,2.614,0.595c0.751,0.396,1.35,0.876,1.797,1.437c0.296,0.38,0.528,0.814,0.693,1.3c0.165,0.488,0.264,0.988,0.298,1.5   h-3.049c-0.017-0.231-0.058-0.446-0.123-0.645c-0.066-0.198-0.149-0.379-0.248-0.544c-0.182-0.281-0.438-0.512-0.769-0.695   c-0.33-0.181-0.735-0.272-1.214-0.272c-0.43,0-0.798,0.075-1.103,0.224c-0.305,0.148-0.566,0.339-0.78,0.569   c-0.38,0.414-0.62,0.909-0.719,1.487c-0.098,0.579-0.148,1.173-0.148,1.784C265.606,58.036,265.656,58.626,265.754,59.196z    M278.962,63.891h-3.147V51.006h3.147V63.891z M279.036,49.223h-3.32v-3.197h3.32V49.223z M292.986,57.871v0.544h-8.623   c0,0.496,0.079,0.967,0.235,1.413c0.157,0.447,0.393,0.818,0.707,1.115c0.231,0.215,0.499,0.4,0.805,0.557   c0.305,0.158,0.673,0.235,1.103,0.235c0.446,0,0.813-0.045,1.102-0.136c0.289-0.09,0.549-0.251,0.782-0.483   c0.297-0.297,0.503-0.661,0.619-1.089h2.974c-0.034,0.379-0.161,0.796-0.384,1.25s-0.459,0.831-0.707,1.127   c-0.545,0.645-1.197,1.107-1.958,1.388c-0.759,0.281-1.553,0.422-2.379,0.422c-0.892,0-1.664-0.146-2.316-0.435   c-0.653-0.289-1.235-0.673-1.747-1.152c-0.644-0.627-1.135-1.378-1.475-2.255c-0.338-0.875-0.508-1.842-0.508-2.899   c0-1.041,0.152-2.002,0.458-2.886c0.305-0.884,0.772-1.64,1.4-2.268c0.479-0.495,1.061-0.892,1.748-1.189   c0.685-0.298,1.473-0.446,2.365-0.446c0.958,0,1.851,0.194,2.677,0.582c0.825,0.389,1.502,0.988,2.031,1.797   c0.479,0.71,0.785,1.433,0.917,2.168c0.132,0.735,0.198,1.508,0.198,2.316C292.995,57.664,292.986,57.771,292.986,57.871z    M306.144,63.891h-3.098v-7.903c0-0.761-0.148-1.354-0.446-1.785c-0.298-0.429-0.859-0.644-1.684-0.644   c-0.546,0-1,0.152-1.364,0.457c-0.363,0.306-0.653,0.699-0.867,1.177c-0.215,0.48-0.339,1.037-0.372,1.673   c-0.034,0.636-0.049,1.227-0.049,1.771v5.252h-3.098V51.006h2.603l0.222,1.66c0.379-0.677,0.92-1.177,1.623-1.499   c0.702-0.323,1.425-0.483,2.168-0.483c0.694,0,1.31,0.116,1.846,0.347c0.537,0.231,0.992,0.549,1.363,0.953   c0.372,0.406,0.656,0.893,0.854,1.463c0.199,0.569,0.298,1.186,0.298,1.845V63.891z M311.471,59.196   c0.098,0.57,0.338,1.062,0.718,1.475c0.215,0.231,0.475,0.425,0.781,0.583c0.306,0.157,0.673,0.235,1.103,0.235   c0.479,0,0.884-0.09,1.214-0.272c0.33-0.181,0.585-0.414,0.769-0.693c0.099-0.166,0.181-0.347,0.248-0.546   c0.065-0.197,0.106-0.413,0.124-0.644h3.048c-0.034,0.513-0.132,1.013-0.298,1.499c-0.165,0.488-0.396,0.921-0.693,1.301   c-0.447,0.562-1.044,1.041-1.796,1.438c-0.752,0.396-1.623,0.595-2.614,0.595c-0.992,0-1.875-0.203-2.652-0.607   c-0.776-0.404-1.388-0.879-1.833-1.425c-0.479-0.611-0.834-1.313-1.066-2.105c-0.232-0.793-0.347-1.661-0.347-2.603   s0.115-1.809,0.347-2.601c0.231-0.793,0.586-1.495,1.066-2.107c0.445-0.545,1.057-1.02,1.833-1.424   c0.776-0.405,1.66-0.607,2.652-0.607c0.991,0,1.862,0.198,2.614,0.595c0.752,0.396,1.35,0.876,1.796,1.437   c0.297,0.38,0.528,0.814,0.693,1.3c0.167,0.488,0.265,0.988,0.298,1.5h-3.048c-0.017-0.231-0.058-0.446-0.124-0.645   c-0.067-0.198-0.148-0.379-0.248-0.544c-0.183-0.281-0.439-0.512-0.769-0.695c-0.331-0.181-0.735-0.272-1.214-0.272   c-0.43,0-0.797,0.075-1.103,0.224c-0.306,0.148-0.565,0.339-0.781,0.569c-0.379,0.414-0.62,0.909-0.718,1.487   c-0.099,0.579-0.149,1.173-0.149,1.784C311.322,58.036,311.372,58.626,311.471,59.196z"
       id="path25" /><path
       fill="#00AEEF"
       d="M323.972,59.828c0.156,0.447,0.392,0.818,0.706,1.115c0.231,0.215,0.499,0.4,0.805,0.557   c0.151,0.078,0.319,0.137,0.502,0.176v-3.261h-2.249C323.736,58.911,323.815,59.382,323.972,59.828z"
       id="path27" /></g><g
     id="g29"><path
       fill="#00AEEF"
       d="M243.948,38.255v-3.012c0-0.29-0.057-0.516-0.17-0.68s-0.327-0.246-0.643-0.246   c-0.207,0-0.381,0.058-0.519,0.175c-0.139,0.116-0.249,0.266-0.331,0.448s-0.129,0.395-0.142,0.638   c-0.013,0.242-0.019,0.467-0.019,0.675v2.002h-1.181v-4.91h0.991l0.086,0.633c0.145-0.258,0.351-0.449,0.618-0.571   c0.268-0.123,0.543-0.184,0.826-0.184c0.265,0,0.499,0.044,0.703,0.132c0.205,0.088,0.378,0.209,0.52,0.364s0.25,0.34,0.326,0.557   c0.075,0.217,0.113,0.452,0.113,0.704v3.276H243.948z"
       id="path31" /><path
       fill="#00AEEF"
       d="M250.492,35.837c-0.007,0.044-0.01,0.085-0.01,0.123v0.208h-3.286c0,0.189,0.03,0.368,0.09,0.538   c0.06,0.17,0.149,0.312,0.27,0.425c0.088,0.082,0.189,0.152,0.307,0.212c0.116,0.06,0.256,0.09,0.42,0.09   c0.17,0,0.311-0.018,0.42-0.052c0.11-0.035,0.21-0.096,0.298-0.184c0.113-0.113,0.192-0.251,0.236-0.416h1.133   c-0.013,0.145-0.062,0.304-0.146,0.477s-0.175,0.316-0.269,0.43c-0.208,0.245-0.457,0.422-0.746,0.529   c-0.29,0.107-0.592,0.16-0.907,0.16c-0.34,0-0.634-0.055-0.883-0.165c-0.248-0.11-0.471-0.256-0.665-0.439   c-0.246-0.239-0.434-0.526-0.563-0.859s-0.193-0.702-0.193-1.105c0-0.396,0.059-0.763,0.175-1.1   c0.116-0.336,0.294-0.625,0.533-0.864c0.183-0.189,0.404-0.34,0.666-0.453c0.261-0.113,0.562-0.17,0.901-0.17   c0.365,0,0.705,0.074,1.021,0.222c0.314,0.148,0.572,0.376,0.774,0.685c0.182,0.271,0.299,0.546,0.349,0.826   C250.467,35.235,250.492,35.529,250.492,35.837z M249.312,35.309c-0.006-0.359-0.107-0.645-0.302-0.859   c-0.082-0.088-0.185-0.158-0.308-0.208c-0.122-0.05-0.269-0.076-0.438-0.076c-0.183,0-0.344,0.035-0.481,0.104   c-0.139,0.069-0.252,0.161-0.34,0.274c-0.089,0.107-0.151,0.22-0.189,0.34s-0.06,0.261-0.066,0.425H249.312z"
       id="path33" /><path
       fill="#00AEEF"
       d="M254.137,38.189c-0.34,0.088-0.677,0.132-1.011,0.132c-0.497,0-0.868-0.133-1.114-0.401   c-0.245-0.267-0.368-0.637-0.368-1.109v-2.493h-0.896v-0.973h0.896v-1.247l1.181-0.292v1.539h1.237v0.973h-1.237v2.389   c0,0.189,0.044,0.326,0.132,0.411c0.089,0.085,0.227,0.127,0.416,0.127c0.126,0,0.244-0.003,0.354-0.01   c0.11-0.006,0.247-0.019,0.411-0.038V38.189z"
       id="path35" /><path
       fill="#00AEEF"
       d="M257.951,38.255v-3.031c0-0.283-0.057-0.506-0.17-0.67c-0.113-0.164-0.327-0.246-0.643-0.246   c-0.176,0-0.328,0.042-0.457,0.128c-0.13,0.085-0.235,0.193-0.316,0.326c-0.082,0.132-0.142,0.278-0.18,0.439   s-0.057,0.316-0.057,0.467v2.587h-1.181v-6.817h1.181v2.427c0.145-0.208,0.34-0.367,0.585-0.477   c0.246-0.11,0.498-0.165,0.756-0.165c0.265,0,0.499,0.044,0.703,0.132c0.205,0.088,0.378,0.211,0.52,0.368   c0.142,0.158,0.25,0.343,0.326,0.557c0.075,0.214,0.113,0.447,0.113,0.699v3.276H257.951z"
       id="path37" /><path
       fill="#00AEEF"
       d="M264.495,35.837c-0.007,0.044-0.01,0.085-0.01,0.123v0.208h-3.286c0,0.189,0.03,0.368,0.09,0.538   c0.06,0.17,0.149,0.312,0.27,0.425c0.088,0.082,0.189,0.152,0.307,0.212c0.116,0.06,0.256,0.09,0.42,0.09   c0.17,0,0.311-0.018,0.42-0.052c0.11-0.035,0.21-0.096,0.298-0.184c0.113-0.113,0.192-0.251,0.236-0.416h1.133   c-0.013,0.145-0.062,0.304-0.146,0.477s-0.175,0.316-0.269,0.43c-0.208,0.245-0.457,0.422-0.746,0.529   c-0.29,0.107-0.592,0.16-0.907,0.16c-0.34,0-0.634-0.055-0.883-0.165c-0.248-0.11-0.471-0.256-0.665-0.439   c-0.246-0.239-0.434-0.526-0.563-0.859S260,36.212,260,35.809c0-0.396,0.059-0.763,0.175-1.1c0.116-0.336,0.294-0.625,0.533-0.864   c0.183-0.189,0.404-0.34,0.666-0.453c0.261-0.113,0.562-0.17,0.901-0.17c0.365,0,0.705,0.074,1.021,0.222   c0.314,0.148,0.572,0.376,0.774,0.685c0.182,0.271,0.299,0.546,0.349,0.826C264.47,35.235,264.495,35.529,264.495,35.837z    M263.314,35.309c-0.006-0.359-0.107-0.645-0.302-0.859c-0.082-0.088-0.185-0.158-0.308-0.208c-0.122-0.05-0.269-0.076-0.438-0.076   c-0.183,0-0.344,0.035-0.481,0.104c-0.139,0.069-0.252,0.161-0.34,0.274c-0.089,0.107-0.151,0.22-0.189,0.34   s-0.06,0.261-0.066,0.425H263.314z"
       id="path39" /><path
       fill="#00AEEF"
       d="M268.272,34.44c-0.145-0.031-0.28-0.047-0.406-0.047c-0.415,0-0.73,0.132-0.944,0.396   c-0.214,0.264-0.32,0.595-0.32,0.991v2.474h-1.19v-4.91h1.001l0.104,0.736c0.113-0.283,0.3-0.488,0.562-0.614   c0.261-0.125,0.536-0.188,0.826-0.188c0.119,0,0.242,0.009,0.368,0.028V34.44z"
       id="path41" /><path
       fill="#00AEEF"
       d="M270.784,38.246c-0.119,0.025-0.206,0.042-0.26,0.052s-0.14,0.014-0.26,0.014   c-0.402,0-0.727-0.104-0.973-0.312c-0.245-0.208-0.368-0.544-0.368-1.01v-5.562h1.19v5.364c0,0.145,0.028,0.259,0.085,0.344   s0.186,0.127,0.387,0.127c0.051,0,0.088-0.001,0.113-0.004c0.025-0.003,0.054-0.005,0.085-0.005V38.246z"
       id="path43" /><path
       fill="#00AEEF"
       d="M275.892,38.198c-0.101,0.044-0.187,0.077-0.26,0.099c-0.072,0.022-0.181,0.033-0.325,0.033   c-0.258,0-0.457-0.069-0.595-0.208c-0.139-0.138-0.218-0.299-0.236-0.481c-0.113,0.202-0.302,0.375-0.566,0.52   c-0.265,0.145-0.573,0.217-0.926,0.217c-0.296,0-0.554-0.042-0.774-0.127c-0.22-0.085-0.404-0.198-0.552-0.34   c-0.148-0.142-0.26-0.305-0.336-0.491c-0.075-0.186-0.113-0.379-0.113-0.581c0-0.233,0.043-0.44,0.128-0.623   s0.203-0.34,0.354-0.472c0.15-0.132,0.327-0.234,0.528-0.307c0.201-0.072,0.419-0.118,0.651-0.137l1.445-0.104v-0.302   c0-0.232-0.056-0.42-0.166-0.562c-0.109-0.142-0.332-0.212-0.665-0.212c-0.277,0-0.493,0.06-0.647,0.179s-0.237,0.293-0.25,0.52   h-1.143c0.019-0.277,0.084-0.516,0.193-0.718c0.11-0.201,0.257-0.367,0.439-0.496s0.394-0.225,0.633-0.288s0.497-0.094,0.774-0.094   c0.422,0,0.798,0.074,1.128,0.222c0.331,0.148,0.568,0.408,0.713,0.779c0.063,0.158,0.103,0.321,0.118,0.491s0.023,0.337,0.023,0.5   v1.822c0,0.113,0.021,0.194,0.062,0.241c0.041,0.047,0.112,0.071,0.213,0.071c0.05,0,0.085-0.003,0.104-0.009   c0.019,0,0.034-0.003,0.047-0.009V38.198z M274.315,36.074l-1.247,0.094c-0.183,0.013-0.346,0.073-0.491,0.18   c-0.145,0.107-0.217,0.261-0.217,0.462c0,0.189,0.071,0.338,0.213,0.449c0.142,0.11,0.304,0.165,0.486,0.165   c0.371,0,0.673-0.096,0.906-0.288c0.232-0.192,0.35-0.47,0.35-0.835V36.074z"
       id="path45" /><path
       fill="#00AEEF"
       d="M279.735,38.255v-3.012c0-0.29-0.057-0.516-0.17-0.68s-0.327-0.246-0.643-0.246   c-0.207,0-0.381,0.058-0.519,0.175c-0.139,0.116-0.249,0.266-0.331,0.448s-0.129,0.395-0.142,0.638   c-0.013,0.242-0.019,0.467-0.019,0.675v2.002h-1.181v-4.91h0.991l0.086,0.633c0.145-0.258,0.351-0.449,0.618-0.571   c0.268-0.123,0.543-0.184,0.826-0.184c0.265,0,0.499,0.044,0.703,0.132c0.205,0.088,0.378,0.209,0.52,0.364s0.25,0.34,0.326,0.557   c0.075,0.217,0.113,0.452,0.113,0.704v3.276H279.735z"
       id="path47" /><path
       fill="#00AEEF"
       d="M285.307,38.255l-0.076-0.538c-0.145,0.227-0.343,0.392-0.595,0.496s-0.513,0.156-0.783,0.156   c-0.246,0-0.47-0.038-0.671-0.113s-0.378-0.176-0.528-0.302c-0.296-0.239-0.515-0.54-0.656-0.902   c-0.142-0.362-0.213-0.775-0.213-1.242c0-0.976,0.293-1.706,0.878-2.19c0.151-0.126,0.326-0.224,0.524-0.293   c0.198-0.069,0.423-0.104,0.675-0.104c0.315,0,0.581,0.045,0.798,0.137c0.218,0.091,0.38,0.2,0.486,0.326v-2.247h1.181v6.817   H285.307z M285.202,35.791c0-0.176-0.014-0.357-0.042-0.543s-0.084-0.356-0.165-0.51c-0.082-0.154-0.195-0.28-0.34-0.377   c-0.146-0.098-0.334-0.146-0.567-0.146c-0.183,0-0.338,0.038-0.467,0.113s-0.238,0.167-0.326,0.274   c-0.126,0.164-0.209,0.349-0.25,0.557c-0.041,0.208-0.062,0.418-0.062,0.633c0,0.214,0.021,0.426,0.062,0.637   s0.124,0.398,0.25,0.562c0.088,0.107,0.197,0.198,0.326,0.273c0.129,0.076,0.284,0.114,0.467,0.114   c0.233,0,0.422-0.049,0.567-0.146c0.145-0.098,0.258-0.224,0.34-0.378c0.081-0.154,0.137-0.326,0.165-0.515   S285.202,35.967,285.202,35.791z"
       id="path49" /><path
       fill="#00AEEF"
       d="M291.426,36.734c0,0.24-0.04,0.447-0.118,0.624c-0.079,0.176-0.182,0.327-0.308,0.453   c-0.201,0.202-0.446,0.346-0.736,0.435c-0.289,0.088-0.604,0.132-0.944,0.132c-0.314,0-0.607-0.045-0.878-0.137   s-0.507-0.234-0.708-0.43c-0.145-0.138-0.268-0.305-0.368-0.5c-0.101-0.195-0.151-0.409-0.151-0.642h1.104   c0,0.107,0.025,0.214,0.076,0.321c0.05,0.107,0.113,0.192,0.188,0.255c0.095,0.075,0.2,0.13,0.316,0.165s0.26,0.052,0.43,0.052   c0.101,0,0.209-0.008,0.326-0.024c0.116-0.016,0.225-0.045,0.325-0.09c0.101-0.044,0.185-0.107,0.25-0.188   c0.066-0.082,0.1-0.189,0.1-0.321c0-0.145-0.044-0.261-0.132-0.349c-0.089-0.088-0.208-0.145-0.359-0.17   c-0.221-0.032-0.447-0.058-0.68-0.081c-0.233-0.022-0.46-0.058-0.68-0.108c-0.17-0.038-0.323-0.098-0.458-0.18   c-0.136-0.082-0.254-0.181-0.354-0.297c-0.101-0.116-0.178-0.246-0.231-0.387s-0.08-0.291-0.08-0.448   c0-0.252,0.047-0.468,0.142-0.647s0.214-0.332,0.359-0.458c0.182-0.157,0.399-0.278,0.651-0.363s0.531-0.127,0.84-0.127   c0.296,0,0.581,0.047,0.854,0.142c0.274,0.094,0.502,0.239,0.685,0.434c0.133,0.145,0.238,0.304,0.316,0.477   c0.079,0.173,0.118,0.351,0.118,0.533h-1.123c0-0.094-0.02-0.179-0.057-0.255c-0.038-0.075-0.085-0.145-0.142-0.208   c-0.069-0.069-0.163-0.125-0.279-0.166c-0.116-0.041-0.237-0.061-0.363-0.061c-0.088,0-0.173,0.003-0.255,0.009   s-0.167,0.028-0.255,0.066c-0.107,0.044-0.197,0.11-0.27,0.199c-0.072,0.088-0.108,0.195-0.108,0.321   c0,0.176,0.062,0.297,0.185,0.364c0.122,0.066,0.25,0.108,0.382,0.127c0.113,0.013,0.208,0.023,0.283,0.033   c0.076,0.01,0.151,0.019,0.227,0.028c0.076,0.01,0.154,0.021,0.236,0.033s0.183,0.028,0.303,0.047   c0.39,0.063,0.711,0.212,0.963,0.448C291.3,36.031,291.426,36.344,291.426,36.734z"
       id="path51" /></g></svg>