<?xml version="1.0" encoding="UTF-8" standalone="no"?>
<!-- Created with Inkscape (http://www.inkscape.org/) -->

<svg
   xmlns:dc="http://purl.org/dc/elements/1.1/"
   xmlns:cc="http://creativecommons.org/ns#"
   xmlns:rdf="http://www.w3.org/1999/02/22-rdf-syntax-ns#"
   xmlns:svg="http://www.w3.org/2000/svg"
   xmlns="http://www.w3.org/2000/svg"
   xmlns:sodipodi="http://sodipodi.sourceforge.net/DTD/sodipodi-0.dtd"
   xmlns:inkscape="http://www.inkscape.org/namespaces/inkscape"
   id="svg2"
   version="1.1"
   inkscape:version="0.48.5 r10040"
   width="125.35"
   height="46.775"
   xml:space="preserve"
   sodipodi:docname="SURF_SARA_fc.eps"
   inkscape:export-filename="/home/paulm/mnt/projects/boids-git/logos/SURF_SARA_fc.png"
   inkscape:export-xdpi="600.38483"
   inkscape:export-ydpi="600.38483"><metadata
     id="metadata8"><rdf:RDF><cc:Work
         rdf:about=""><dc:format>image/svg+xml</dc:format><dc:type
           rdf:resource="http://purl.org/dc/dcmitype/StillImage" /><dc:title></dc:title></cc:Work></rdf:RDF></metadata><defs
     id="defs6" /><sodipodi:namedview
     pagecolor="#ffffff"
     bordercolor="#666666"
     borderopacity="1"
     objecttolerance="10"
     gridtolerance="10"
     guidetolerance="10"
     inkscape:pageopacity="0"
     inkscape:pageshadow="2"
     inkscape:window-width="640"
     inkscape:window-height="480"
     id="namedview4"
     showgrid="false"
     inkscape:zoom="2.7921819"
     inkscape:cx="62.674999"
     inkscape:cy="23.387501"
     inkscape:window-x="0"
     inkscape:window-y="33"
     inkscape:window-maximized="0"
     inkscape:current-layer="g10" /><g
     id="g10"
     inkscape:groupmode="layer"
     inkscape:label="ink_ext_XXXXXX"
     transform="matrix(1.25,0,0,-1.25,0,46.775)"><g
       id="g12"
       transform="scale(0.1,0.1)"><path
         d="m 678.09,148.098 c 30.996,0 56.133,-25.129 56.133,-56.1292 l 0,-35.8555 C 734.223,25.1172 709.086,0 678.09,0 l -83.777,0 c -30.997,0 -56.125,25.1172 -56.125,56.1133 l 0,22.1445 c 0,38.5662 -31.27,69.8402 -69.844,69.8402 l -398.5002,0 C 31.2734,148.098 0,179.363 0,217.945 l 0,86.368 c 0,38.574 31.2734,69.847 69.8438,69.847 l 398.5002,0 c 38.574,0 69.844,-31.273 69.844,-69.847 l 0,-86.368 c 0,-38.582 31.269,-69.847 69.855,-69.847 l 70.047,0"
         style="fill:#20180e;fill-opacity:1;fill-rule:nonzero;stroke:none"
         id="path14" /><path
         d="m 120.316,240.43 c 0,5.238 -6.582,7.39 -15.046,9.945 l -16.9341,5.109 c -12.2343,3.625 -22.9843,12.231 -22.9843,27.286 0,18.144 16.2656,30.507 38.3044,30.507 17.071,0 37.227,-5.914 37.227,-16.804 0,-6.719 -3.363,-10.883 -9.543,-10.883 -3.227,0 -6.047,1.074 -9.27,2.148 -4.707,1.75 -10.484,3.766 -18.414,3.766 -6.4529,0 -14.5154,-2.555 -14.5154,-7.66 0,-4.571 3.6289,-6.719 11.5584,-9.137 l 18.949,-5.781 c 12.77,-3.899 24.461,-11.559 24.461,-29.168 0,-18.817 -17.605,-30.91 -40.183,-30.91 -18.9494,0 -41.1291,5.914 -41.1291,16.8 0,6.719 3.8984,10.883 10.6211,10.883 3.4922,0 6.7187,-0.933 10.3476,-2.152 5.1055,-1.742 11.1524,-3.758 20.1604,-3.758 7.66,0 16.39,3.488 16.39,9.809"
         style="fill:#ffffff;fill-opacity:1;fill-rule:nonzero;stroke:none"
         id="path16" /><path
         d="m 235.504,301.18 c 0,7.656 4.031,11.554 11.559,11.554 7.656,0 11.691,-3.898 11.691,-11.554 l 0,-44.348 c 0,-29.168 -19.492,-47.984 -46.102,-47.984 -26.48,0 -45.968,18.816 -45.968,47.984 l 0,44.348 c 0,7.656 4.039,11.554 11.562,11.554 7.656,0 11.692,-3.898 11.692,-11.554 l 0,-44.348 c 0,-15.73 9.542,-25.137 22.714,-25.137 13.305,0 22.852,9.407 22.852,25.137 l 0,44.348"
         style="fill:#ffffff;fill-opacity:1;fill-rule:nonzero;stroke:none"
         id="path18" /><path
         d="m 309.281,289.625 0,-27.012 19.625,0 c 8.871,0 15.856,4.028 15.856,13.438 0,9.539 -6.985,13.574 -15.856,13.574 l -19.625,0 z m 21.242,-48.121 -21.242,0 0,-20.563 c 0,-7.66 -4.031,-11.554 -11.687,-11.554 -7.528,0 -11.563,3.894 -11.563,11.554 l 0,79.297 c 0,7.66 4.035,11.563 11.563,11.563 l 33.328,0 c 22.316,0 37.766,-14.653 37.766,-35.75 0,-12.903 -5.918,-22.723 -15.86,-27.961 l 10.75,-21.504 c 1.074,-2.148 1.477,-4.16 1.477,-6.18 0,-6.718 -7.657,-11.019 -13.438,-11.019 -4.297,0 -7.383,2.551 -9.539,7.386 l -11.555,24.731"
         style="fill:#ffffff;fill-opacity:1;fill-rule:nonzero;stroke:none"
         id="path20" /><path
         d="m 417.066,245.938 0,-24.997 c 0,-7.66 -3.886,-11.554 -11.554,-11.554 -7.528,0 -11.551,3.894 -11.551,11.554 l 0,79.297 c 0,7.66 4.023,11.563 11.551,11.563 l 55.644,0 c 7.395,0 11.016,-3.77 11.016,-11.024 0,-7.39 -3.621,-11.152 -11.016,-11.152 l -44.09,0 0,-21.512 27.559,0 c 7.391,0 11.016,-3.761 11.016,-11.148 0,-7.262 -3.625,-11.027 -11.016,-11.027 l -27.559,0"
         style="fill:#ffffff;fill-opacity:1;fill-rule:nonzero;stroke:none"
         id="path22" /><path
         d="m 657.594,240.77 c 0,5.343 -6.711,7.539 -15.344,10.136 l -17.273,5.207 c -12.461,3.7 -23.418,12.473 -23.418,27.821 0,18.496 16.57,31.105 39.043,31.105 17.402,0 37.957,-6.027 37.957,-17.129 0,-6.855 -3.426,-11.105 -9.727,-11.105 -3.289,0 -6.172,1.105 -9.453,2.199 -4.805,1.777 -10.691,3.836 -18.777,3.836 -6.575,0 -14.797,-2.606 -14.797,-7.813 0,-4.656 3.703,-6.843 11.789,-9.316 l 19.316,-5.887 c 13.016,-3.976 24.942,-11.789 24.942,-29.734 0,-19.192 -17.95,-31.516 -40.977,-31.516 -19.316,0 -41.926,6.024 -41.926,17.129 0,6.848 3.977,11.094 10.821,11.094 3.566,0 6.855,-0.957 10.558,-2.188 5.203,-1.789 11.367,-3.839 20.547,-3.839 7.813,0 16.719,3.566 16.719,10"
         style="fill:#20180e;fill-opacity:1;fill-rule:nonzero;stroke:none"
         id="path24" /><path
         d="m 729.82,245.84 29.461,0 -14.668,33.027 -14.793,-33.027 z m 62.754,-19.863 c 1.102,-2.469 1.649,-4.524 1.649,-6.582 0,-6.434 -6.856,-10.821 -13.289,-10.821 -4.25,0 -7.676,2.735 -9.875,7.395 l -4.383,9.453 -44.258,0 -4.387,-9.453 c -2.187,-4.66 -5.613,-7.395 -9.863,-7.395 -6.434,0 -13.289,4.387 -13.289,10.821 0,2.058 0.547,4.113 1.641,6.582 l 37,80.429 c 2.187,4.93 5.617,8.086 11.093,8.086 5.215,0 8.77,-3.156 10.969,-8.086 l 36.992,-80.429"
         style="fill:#20180e;fill-opacity:1;fill-rule:nonzero;stroke:none"
         id="path26" /><path
         d="m 833.559,290.918 0,-27.539 20,0 c 9.054,0 16.171,4.109 16.171,13.699 0,9.727 -7.117,13.84 -16.171,13.84 l -20,0 z m 21.652,-49.055 -21.652,0 0,-20.965 c 0,-7.8 -4.11,-11.777 -11.922,-11.777 -7.676,0 -11.789,3.977 -11.789,11.777 l 0,80.848 c 0,7.813 4.113,11.789 11.789,11.789 l 33.984,0 c 22.742,0 38.504,-14.941 38.504,-36.457 0,-13.152 -6.035,-23.152 -16.172,-28.492 l 10.969,-21.926 c 1.094,-2.195 1.504,-4.25 1.504,-6.308 0,-6.844 -7.813,-11.231 -13.703,-11.231 -4.383,0 -7.539,2.598 -9.727,7.527 l -11.785,25.215"
         style="fill:#20180e;fill-opacity:1;fill-rule:nonzero;stroke:none"
         id="path28" /><path
         d="m 938.383,245.84 29.465,0 -14.668,33.027 -14.797,-33.027 z m 62.757,-19.863 c 1.1,-2.469 1.65,-4.524 1.65,-6.582 0,-6.434 -6.856,-10.821 -13.294,-10.821 -4.246,0 -7.676,2.735 -9.871,7.395 l -4.387,9.453 -44.258,0 -4.382,-9.453 c -2.188,-4.66 -5.618,-7.395 -9.864,-7.395 -6.437,0 -13.293,4.387 -13.293,10.821 0,2.058 0.547,4.113 1.641,6.582 l 37.004,80.429 c 2.187,4.93 5.613,8.086 11.094,8.086 5.215,0 8.769,-3.156 10.965,-8.086 l 36.995,-80.429"
         style="fill:#20180e;fill-opacity:1;fill-rule:nonzero;stroke:none"
         id="path30" /></g></g></svg>